<svg id="Livello_1" data-name="Livello 1" xmlns="http://www.w3.org/2000/svg" viewBox="0 0 181.1 173.5"><defs><style>.cls-1,.cls-3,.cls-4{fill:none;stroke:#fff;stroke-miterlimit:10;}.cls-1{stroke-width:2px;}.cls-2{fill:#fff;}.cls-3{stroke-width:0.73px;}.cls-4{stroke-width:0.16px;}</style></defs><circle class="cls-1" cx="89.6" cy="90.1" r="74.3"/><polygon class="cls-2" points="67.1 50.9 63.5 57.5 63.5 135.6 67.1 127.9 67.1 50.9"/><polygon class="cls-2" points="87.9 77 111.8 77 115.6 68.5 87.9 68.5 87.9 77"/><polygon class="cls-3" points="115.2 68.2 115.2 51.3 87.5 51.3 83.2 51.3 67.4 51.3 67.4 127.6 87.5 127.6 87.5 102.2 112.4 102.2 112.4 85.3 87.5 85.3 87.5 68.2 115.2 68.2"/><polygon class="cls-2" points="87.9 110.8 108.4 110.8 112.8 102.5 87.9 102.5 87.9 110.8"/><polygon class="cls-2" points="63.5 135.6 84.1 135.5 87.9 128 67.1 127.9 63.5 135.6"/><path class="cls-2" d="M124.6,43.9h-2.5s.1-4.3,4-4.4,4.7,2.5,4.5,4.8c-.1,1.5-2.3,3.8-3.1,4.6l-.5.5c-.4.5-1.2,1.4-1.2,1.4h4.8v2.6h-8.7a8.93,8.93,0,0,1,2.5-5c2.3-2.3,3.6-3.3,3.6-5,0-1.2-.5-1.6-1.6-1.7A2,2,0,0,0,124.6,43.9Z"/><path class="cls-4" d="M125.7,42.8h-2.5s.1-4.3,4-4.4,4.7,2.5,4.5,4.8c-.1,1.5-2.3,3.8-3.1,4.6l-.5.5c-.4.5-1.2,1.4-1.2,1.4h4.8v2.6H123a8.93,8.93,0,0,1,2.5-5c2.3-2.3,3.6-3.3,3.6-5,0-1.2-.5-1.6-1.6-1.7A2,2,0,0,0,125.7,42.8Z"/><polygon class="cls-2" points="124.6 43.9 125.7 42.8 123.2 42.8 122.1 43.9 124.6 43.9"/><path class="cls-2" d="M123.2,42.8a5.07,5.07,0,0,1,2.2-4s-2.8,1-3.2,5Z"/><polygon class="cls-2" points="131.6 52.3 130.6 53.4 121.9 53.4 123 52.3 131.6 52.3"/></svg>