<?xml version="1.0" encoding="utf-8"?>
<!-- Generator: Adobe Illustrator 24.1.0, SVG Export Plug-In . SVG Version: 6.00 Build 0)  -->
<svg version="1.1" id="Livello_1" xmlns="http://www.w3.org/2000/svg" xmlns:xlink="http://www.w3.org/1999/xlink" x="0px" y="0px"
	 viewBox="0 0 181.1 173.5" style="enable-background:new 0 0 181.1 173.5;" xml:space="preserve">
<style type="text/css">
	.st0{fill:#FFFFFF;stroke:#61554E;stroke-width:1.2539;stroke-miterlimit:10;}
	.st1{fill:#61554E;}
	.st2{fill:#FFFFFF;stroke:#61554E;stroke-width:0.7301;stroke-miterlimit:10;}
	.st3{fill:#FFFFFF;stroke:#61554E;stroke-width:0.1567;stroke-miterlimit:10;}
</style>
<circle class="st0" cx="89.6" cy="90.1" r="74.3"/>
<polygon class="st1" points="67.1,50.9 63.5,57.5 63.5,135.6 67.1,127.9 "/>
<polygon class="st1" points="87.9,77 111.8,77 115.6,68.5 87.9,68.5 "/>
<polygon class="st2" points="115.2,68.2 115.2,51.3 87.5,51.3 83.2,51.3 67.4,51.3 67.4,127.6 87.5,127.6 87.5,102.2 112.4,102.2 
	112.4,85.3 87.5,85.3 87.5,68.2 "/>
<polygon class="st1" points="87.9,110.8 108.4,110.8 112.8,102.5 87.9,102.5 "/>
<polygon class="st1" points="63.5,135.6 84.1,135.5 87.9,128 67.1,127.9 "/>
<path class="st1" d="M124.6,43.9h-2.5c0,0,0.1-4.3,4-4.4c3.8-0.1,4.7,2.5,4.5,4.8c-0.1,1.5-2.3,3.8-3.1,4.6
	c-0.2,0.2-0.3,0.3-0.5,0.5c-0.4,0.5-1.2,1.4-1.2,1.4h4.8v2.6h-8.7c0,0,0.2-2.6,2.5-5c2.3-2.3,3.6-3.3,3.6-5c0-1.2-0.5-1.6-1.6-1.7
	C125.5,41.8,124.6,42.4,124.6,43.9z"/>
<path class="st3" d="M125.7,42.8h-2.5c0,0,0.1-4.3,4-4.4c3.8-0.1,4.7,2.5,4.5,4.8c-0.1,1.5-2.3,3.8-3.1,4.6
	c-0.2,0.2-0.3,0.3-0.5,0.5c-0.4,0.5-1.2,1.4-1.2,1.4h4.8v2.6H123c0,0,0.2-2.6,2.5-5c2.3-2.3,3.6-3.3,3.6-5c0-1.2-0.5-1.6-1.6-1.7
	C126.6,40.7,125.7,41.3,125.7,42.8z"/>
<polygon class="st1" points="124.6,43.9 125.7,42.8 123.2,42.8 122.1,43.9 "/>
<path class="st1" d="M123.2,42.8c0,0,0-2.6,2.2-4c0,0-2.8,1-3.2,5L123.2,42.8z"/>
<polygon class="st1" points="131.6,52.3 130.6,53.4 121.9,53.4 123,52.3 "/>
</svg>
